<svg width="40" height="40" viewBox="0 0 40 40" fill="none" xmlns="http://www.w3.org/2000/svg">
<rect width="40" height="40" fill="#F7F7FF"/>
<path fill-rule="evenodd" clip-rule="evenodd" d="M16.0898 28.3333C16.3229 27.4303 17.1437 26.7619 18.1191 26.7619C19.0944 26.7619 19.9152 27.4303 20.1483 28.3333H31.4762C31.5495 28.3333 31.6218 28.3485 31.6888 28.3783C31.7512 28.4061 31.8083 28.4464 31.8554 28.4957C31.9005 28.5428 31.9366 28.5989 31.9612 28.6591C31.9837 28.7146 31.9968 28.7738 31.9995 28.8335C32.0021 28.8906 31.9953 28.9483 31.979 29.0038C31.9649 29.0525 31.9434 29.0991 31.9156 29.1421C31.8549 29.2358 31.7637 29.3086 31.659 29.3479C31.6019 29.3694 31.5406 29.3804 31.4793 29.3809H31.4762H20.1483C19.9152 30.284 19.0944 30.9523 18.1191 30.9523C17.1437 30.9523 16.3229 30.284 16.0898 29.3809H10.5238C10.4625 29.3809 10.4013 29.3704 10.3436 29.349C10.2378 29.3102 10.1456 29.2369 10.0844 29.1421C10.0566 29.0991 10.0351 29.0525 10.021 29.0038C10.0047 28.9483 9.99793 28.8906 10.0005 28.8335C10.0032 28.7738 10.0163 28.7146 10.0388 28.6591C10.0634 28.5989 10.0995 28.5428 10.1446 28.4957C10.1917 28.4464 10.2488 28.4061 10.3112 28.3783C10.3782 28.3485 10.4505 28.3333 10.5238 28.3333H16.0898ZM18.1191 27.8095C18.6973 27.8095 19.1667 28.2788 19.1667 28.8571C19.1667 29.4354 18.6973 29.9047 18.1191 29.9047C17.5408 29.9047 17.0714 29.4354 17.0714 28.8571C17.0714 28.2788 17.5408 27.8095 18.1191 27.8095ZM24.4708 19.9524C24.7039 19.0493 25.5247 18.3809 26.5 18.3809C27.4753 18.3809 28.2961 19.0493 28.5292 19.9524H31.4762C31.5495 19.9524 31.6218 19.9676 31.6888 19.9974C31.7512 20.0252 31.8083 20.0655 31.8554 20.1147C31.9005 20.1619 31.9366 20.2179 31.9612 20.2782C31.9837 20.3337 31.9968 20.3929 31.9995 20.4526C32.0021 20.5097 31.9953 20.5673 31.979 20.6228C31.9649 20.6716 31.9434 20.7182 31.9156 20.7611C31.8549 20.8549 31.7637 20.9277 31.659 20.967C31.6019 20.9885 31.5406 20.9995 31.4793 21H31.4762H28.5292C28.2961 21.903 27.4753 22.5714 26.5 22.5714C25.5247 22.5714 24.7039 21.903 24.4708 21H10.5238C10.4505 21 10.3782 20.9848 10.3112 20.9549C10.2488 20.9272 10.1917 20.8868 10.1446 20.8376C10.0995 20.7905 10.0634 20.7344 10.0388 20.6742C10.0163 20.6186 10.0032 20.5595 10.0005 20.4998C9.99793 20.4427 10.0047 20.385 10.021 20.3295C10.0351 20.2808 10.0566 20.2342 10.0844 20.1912C10.1456 20.0964 10.2378 20.0231 10.3436 19.9843C10.4013 19.9628 10.4625 19.9524 10.5238 19.9524H24.4708ZM26.5 19.4286C27.0783 19.4286 27.5476 19.8979 27.5476 20.4762C27.5476 21.0545 27.0783 21.5238 26.5 21.5238C25.9217 21.5238 25.4524 21.0545 25.4524 20.4762C25.4524 19.8979 25.9217 19.4286 26.5 19.4286ZM12.6851 11.5714C12.9182 10.6684 13.739 10 14.7143 10C15.6896 10 16.5104 10.6684 16.7435 11.5714H31.4762C31.5495 11.5714 31.6218 11.5866 31.6888 11.6165C31.7512 11.6442 31.8083 11.6846 31.8554 11.7338C31.9005 11.7809 31.9366 11.837 31.9612 11.8972C31.9837 11.9528 31.9968 12.012 31.9995 12.0717C32.0021 12.1288 31.9953 12.1864 31.979 12.2419C31.9649 12.2906 31.9434 12.3372 31.9156 12.3802C31.8549 12.474 31.7637 12.5468 31.659 12.586C31.6019 12.6075 31.5406 12.6185 31.4793 12.619H31.4762H16.7435C16.5104 13.5221 15.6896 14.1905 14.7143 14.1905C13.739 14.1905 12.9182 13.5221 12.6851 12.619H10.5238C10.4625 12.619 10.4013 12.6086 10.3436 12.5871C10.2378 12.5483 10.1456 12.475 10.0844 12.3802C10.0566 12.3372 10.0351 12.2906 10.021 12.2419C10.0047 12.1864 9.99793 12.1288 10.0005 12.0717C10.0032 12.012 10.0163 11.9528 10.0388 11.8972C10.0634 11.837 10.0995 11.7809 10.1446 11.7338C10.1917 11.6846 10.2488 11.6442 10.3112 11.6165C10.3782 11.5866 10.4505 11.5714 10.5238 11.5714H12.6851ZM14.7143 11.0476C15.2926 11.0476 15.7619 11.5169 15.7619 12.0952C15.7619 12.6735 15.2926 13.1429 14.7143 13.1429C14.136 13.1429 13.6667 12.6735 13.6667 12.0952C13.6667 11.5169 14.136 11.0476 14.7143 11.0476Z" fill="#000046"/>
</svg>
